<?xml version="1.0" encoding="UTF-8"?>
<svg id="Layer_1" data-name="Layer 1" xmlns="http://www.w3.org/2000/svg" viewBox="0 0 32 32">
  <path d="M16.61,14.21c-1.46-.41-2.95-1-2.95-2.19,0-1.29,1.01-1.56,1.85-1.56,1.55,0,3.07,1.05,4.31,2.99.38.53,1.08.49,1.36.34l.25-.13c.35-.18.54-.47.54-.84,0-.17-.04-.33-.11-.51l-1.4-3.43c-.21-.47-.55-.7-1.05-.7h-.33c-.54,0-.84.3-.94.65-.66-.31-1.56-.59-2.68-.59-2.99,0-5.01,1.63-5.01,4.05,0,2.99,2.8,4.18,5.23,4.87,2.85.83,3.85,1.23,3.85,2.47s-.84,1.9-2.29,1.9c-2.13,0-3.86-1.21-5.65-3.94-.1-.14-.36-.5-.84-.5-.23,0-.39.08-.54.16l-.35.2c-.34.17-.54.51-.54.89,0,.2.06.4.14.51l2.29,4.35c.21.4.57.62,1.03.62h.61c.51,0,.81-.26.91-.57.94.39,1.81.57,2.71.57,3.41,0,5.7-1.84,5.7-4.57,0-3.27-3.52-4.29-6.09-5.03Z"/>
  <path d="M15.95,1.17C7.43,1.17,1,7.59,1,16.09s6.43,14.74,14.95,14.74,15.05-6.34,15.05-14.74S24.53,1.17,15.95,1.17ZM15.95,27.96c-6.87,0-12.05-5.1-12.05-11.87S9.08,4.04,15.95,4.04s12.14,5.18,12.14,12.05-5.22,11.87-12.14,11.87Z"/>
</svg>